<svg xmlns="http://www.w3.org/2000/svg" width="180" height="64" viewBox="0 0 180 64">
  <defs>
    <style>
      .cls-1 {
        fill: #fff;
      }
    </style>
  </defs>
  <g id="btn_ok_tips" transform="translate(-90 -507)">
    <path id="Application" class="cls-1" d="M-40.908-5.1l4.032-1.988-1.344-5.068L-46-11.144l.2,2.688,2.744-1.064.924,2.464-3.472,1.344.2,2.492-.448,1.12L-50.4,1.68-52.108-.336l4.032-3.36-.084-1.036L-52-3.248l-.98-2.436,4.592-1.764-.252-3.36-4.648.588-.336-2.6,4.788-.616-.252-3.22L-52.5-15.008l-1.148-2.352,9.044-4.424,1.148,2.38-3.052,1.484.308,4.144,7.308-.952-1.372-5.152,2.548-.644,1.456,5.46,2.744-.364-1.54-3.192,2.38-1.148,2.352,4.844-1.036,1.876-4.228.56,1.12,4.2,1.988-.98,1.176,2.38-2.464,1.2,1.68,6.3-2.548.7-1.54-5.8L-39.76-2.744Zm29.932,2.184-.812-13.8,1.232-1.4,6.58-.532,1.428,1.316L-2.52-3.248-3.78-1.96l-5.8.308ZM-16.6-15.092l-1.232,4.06,5.348.392-.2,2.632-5.936-.448-3.024,9.884-2.52-.756,2.828-9.324-4.172-.336.224-2.632,4.732.364,1.2-3.948-3.36-.168-1.092-1.96,2.436-4.256,2.3,1.288-1.372,2.408,7.392.336-.112,2.6ZM-8.428-4.34l3.248-.168-.028-11.368-3.836.28Zm-9.772-.9,2.156-1.54,3.556,4.984L-14.644-.28ZM8.484-18.7l3.864-.2-.672-1.68,2.464-.98.98,2.492,3.668-.2,1.176-2.856,2.464,1.036-.672,1.652,3.948-.224.14,2.66-7.308.42-.98,1.12,6.132-.224,1.372,1.456L24.08-2.6,22.624-1.4l-11.9-.9L9.52-3.64,9.38-13.86,10.668-15.2l3.3-.112.9-1.064-6.244.336ZM3.948,1.6,2.66-.056l3-12.74-3.5-.5.392-2.6,4.928.644L8.6-13.636,5.628-1.036,25.564-.7l-.028,2.66ZM21.5-4.144l.784-8.82-10.22.364v.644l7.168.168.812,2.38L18.34-8.064l2.38.308-.364,2.632L14.84-5.88,14.168-8.2,15.456-9.24,12.068-9.3l.056,4.452ZM2.268-18.116l.168-2.66,5.208.42-.2,2.66ZM36.6-1.456,43.2-2.1l-1.4-8.988.336-1.092,5.544-6.3L32.4-18.648l.028-2.632,18.172.224.98,2.156L44.52-10.864,46-1.12,44.856.42l-8.008.7Z" transform="translate(183 546)"/>
    <g id="组_7945" data-name="组 7945" transform="translate(10 0)">
      <g id="组_7944" data-name="组 7944">
        <rect id="矩形_9148" data-name="矩形 9148" class="cls-1" width="1.8" height="5.486" transform="translate(82.7 548.143)"/>
        <rect id="矩形_9149" data-name="矩形 9149" class="cls-1" width="1.8" height="6.4" transform="translate(86.3 553.628)"/>
        <rect id="矩形_9150" data-name="矩形 9150" class="cls-1" width="1.8" height="5.486" transform="translate(90.8 558.2)"/>
        <rect id="矩形_9151" data-name="矩形 9151" class="cls-1" width="1.8" height="5.486" transform="translate(96.2 561.857)"/>
        <rect id="矩形_9152" data-name="矩形 9152" class="cls-1" width="1.8" height="5.486" transform="translate(103.4 564.6)"/>
        <rect id="矩形_9153" data-name="矩形 9153" class="cls-1" width="1.8" height="5.486" transform="translate(113.3 564.6)"/>
        <rect id="矩形_9148-2" data-name="矩形 9148" class="cls-1" width="1.8" height="5.486" transform="translate(255.5 548.143)"/>
        <rect id="矩形_9149-2" data-name="矩形 9149" class="cls-1" width="1.8" height="6.4" transform="translate(251.9 553.628)"/>
        <rect id="矩形_9150-2" data-name="矩形 9150" class="cls-1" width="1.8" height="5.486" transform="translate(247.4 558.2)"/>
        <rect id="矩形_9151-2" data-name="矩形 9151" class="cls-1" width="1.8" height="5.486" transform="translate(242 561.857)"/>
        <rect id="矩形_9152-2" data-name="矩形 9152" class="cls-1" width="1.8" height="5.486" transform="translate(234.8 564.6)"/>
        <rect id="矩形_9153-2" data-name="矩形 9153" class="cls-1" width="1.8" height="5.486" transform="translate(224.9 564.6)"/>
        <path id="减去_69" data-name="减去 69" class="cls-1" d="M150.743,58.514H29.257A29.265,29.265,0,0,1,17.869,2.3,29.074,29.074,0,0,1,29.257,0H150.743a29.265,29.265,0,0,1,11.388,56.215A29.075,29.075,0,0,1,150.743,58.514ZM29.228,1.829a27.428,27.428,0,1,0,0,54.857H150.772a27.428,27.428,0,0,0,0-54.857Z" transform="translate(80 507)"/>
        <path id="路径_4564" data-name="路径 4564" class="cls-1" d="M151.2,67.914H28.8a27.565,27.565,0,0,1-11.21-2.365A28.677,28.677,0,0,1,8.435,59.1a30.106,30.106,0,0,1-6.172-9.566A31.072,31.072,0,0,1,0,37.821C0,36.879.042,35.93.124,35a30.956,30.956,0,0,0,2.139,8.893c.115.284.235.569.359.849C5.659,57.278,16.423,66.034,28.8,66.034H151.2c12.376,0,23.141-8.755,26.178-21.292.123-.28.244-.566.359-.849A30.956,30.956,0,0,0,179.876,35c.083.937.124,1.886.124,2.821a31.072,31.072,0,0,1-2.263,11.714,30.105,30.105,0,0,1-6.172,9.566,28.67,28.67,0,0,1-9.154,6.449A27.565,27.565,0,0,1,151.2,67.914Z" transform="translate(80 503.085)"/>
      </g>
    </g>
  </g>
</svg>
