<svg xmlns="http://www.w3.org/2000/svg" width="128" height="72" viewBox="0 0 128 72">
  <defs>
    <style>
      .cls-1 {
        fill: #f4f5f7;
      }

      .cls-2 {
        opacity: 0.04;
      }
    </style>
  </defs>
  <g id="empty_video" transform="translate(-12 -100)">
    <rect id="矩形_1812" data-name="矩形 1812" class="cls-1" width="128" height="72" rx="4" transform="translate(12 100)"/>
    <g id="组_4777" data-name="组 4777" class="cls-2" transform="translate(56 116)">
      <path id="路径_210" data-name="路径 210" d="M217.609,579.24c-.91.33-1.827.663-2.745.994a2.3,2.3,0,0,1-.477.148c-.916.112-1.178-.009-1.384-.736a3.537,3.537,0,0,1-.189-1.011c.013-.748.645-1.047,1.16-1.426.8-.591,1.6-1.2,2.454-1.839a2.771,2.771,0,0,1-1.138-2.676l-2.152.519c-.211.051-.421.107-.632.155-.575.132-1.5-.491-1.456-1.06.017-.221.35-.456.587-.614s.589-.172.806-.35c1.3-1.067,2.573-2.162,3.854-3.249a.492.492,0,0,0,.168-.269,3.245,3.245,0,0,1-.652.344,2.945,2.945,0,0,1-.746.043,2.874,2.874,0,0,1-2.757-2.333.81.81,0,0,1-.008-.442,14.827,14.827,0,0,1,1.03-2.367,1.761,1.761,0,0,1,1.67-.71c1.042.082,1.26.872,1.185,1.951-.015.226-.032.452-.048.677a2.828,2.828,0,0,0,.808-.233c1.15-.763,2.28-1.556,3.411-2.347a2.262,2.262,0,0,1,2.606.335,1.4,1.4,0,0,1-.038,1.494,9.32,9.32,0,0,1-.644.884,1.159,1.159,0,0,1-.437.24c-.61.251-1.384.2-1.692.995-.08.208-.337.358-.534.509-.539.414-1.091.811-1.633,1.222a.373.373,0,0,0-.117.329c.364-.162.742-.3,1.09-.49a4.329,4.329,0,0,1,2.755-.5c.943.13,1.044.635.851,1.508-.081.364-.512.642-.74.988a.832.832,0,0,0-.138.584c.146.578.376,1.135.531,1.712a1.289,1.289,0,0,1-.184,1.119,2.672,2.672,0,0,0-.442,1.23c-.015.19.342.469.588.607a1.612,1.612,0,0,1,.712,1.6.862.862,0,0,1-.3.383c-.593.423-1.225.8-1.792,1.249a1.93,1.93,0,0,0-.567.849c-.2.59-.323,1.209-.469,1.817a.584.584,0,0,0,.446.766c.461.14.932.246,1.4.379.445.128.884.277,1.328.407.182.053.37.082.617.135a5.693,5.693,0,0,0-1.343-4.244l.068-.128c.3.085.684.081.875.271a18.615,18.615,0,0,1,2.045,2.271,2.544,2.544,0,0,1,.289,2.124.686.686,0,0,0,.354.863c1.189.754,2.369,1.523,3.518,2.334a10.254,10.254,0,0,1,1.386,1.258.913.913,0,0,1,.107,1.149c-.373.647-.818,1.254-1.174,1.91a4.644,4.644,0,0,0-.275,1.059l-.458-.366.286.836-.074.037c-.081-.112-.161-.226-.244-.336a30.5,30.5,0,0,0-2.265-2.954,16.424,16.424,0,0,0-2.5-1.863c-.087-.061-.3.032-.447.08-.833.272-1.65.609-2.5.818a2.611,2.611,0,0,1-2.714-1.1c-.043-.05-.089-.1-.136-.145-.009-.009-.031-.007-.085-.019a1.405,1.405,0,0,0-.156.212,4.049,4.049,0,0,1-3.8,2.2,7.644,7.644,0,0,1-2.089-.416c-.149-.037-.28-.234-.374-.385-.616-.987-1.262-1.959-1.813-2.981a12.292,12.292,0,0,1-.969-2.325,2.275,2.275,0,0,1,.082-1.347c.079-.218.524-.4.818-.427a12.47,12.47,0,0,1,1.6.1c1.751.1,3.5.2,5.252.279a.708.708,0,0,0,.453-.146A2.016,2.016,0,0,0,217.609,579.24Zm-1.429,4.5a2.151,2.151,0,0,0-.525-.349c-.5-.133-1.016-.225-1.528-.322a2.945,2.945,0,0,0-1.21-.174c-.535.154-.892-.251-1.355-.225a2.52,2.52,0,0,0-.961.077c-.117.062-.1.593.02.826a5.138,5.138,0,0,0,1.487,1.6,1.2,1.2,0,0,0,1.222.31,7.556,7.556,0,0,0,1.534-.449A8.187,8.187,0,0,0,216.179,583.742Zm2.252,2.648c1.03.981,2.5.232,3.424-.819a1.719,1.719,0,0,0-.348-.255c-.631-.252-1.278-.469-1.9-.734-.467-.2-.654.051-.772.415C218.685,585.444,218.569,585.9,218.431,586.39Zm1.53-22.936a4.455,4.455,0,0,0-2.424,2.122,3.081,3.081,0,0,1-.652,1.469,2.971,2.971,0,0,0-.291.65A20.26,20.26,0,0,0,219.961,563.455Z" transform="translate(-191 -552.137)"/>
      <path id="路径_211" data-name="路径 211" d="M184.116,580.347l.188-.34-.072-.08c-.8.533-1.587,1.071-2.387,1.6-.465.3-.954.572-1.408.892-.108.077-.115.294-.174.445-.089.228-.182.454-.313.781a6.619,6.619,0,0,0,1.271-.078,26.659,26.659,0,0,0,2.568-.806c.485-.18.9-.533,1.39-.711.434-.159.926-.152,1.375-.278a2.874,2.874,0,0,1,2.079.375c1.038.5,1.191.982.356,1.972a2.5,2.5,0,0,1-1.372.715,13.5,13.5,0,0,0-2.56.9,8.686,8.686,0,0,1-3.364,1.149,3.935,3.935,0,0,1-3.832-1.89,1.18,1.18,0,0,1,.874-1.849,1.222,1.222,0,0,0,.625-.338q1.748-1.962,3.451-3.961a5.941,5.941,0,0,0,.494-.8c-.285-.1-.565-.223-.857-.3-.931-.24-1.868-.458-2.8-.694-.6-.152-.662-.119-.927.435-.55,1.153-1.157,2.282-1.656,3.456a20.366,20.366,0,0,0-.8,2.509,9.956,9.956,0,0,0-.024,4.074c.057.415.14.835-.249,1.16-.049.041-.057.141-.069.216a1,1,0,0,1-1.187.951,2.082,2.082,0,0,1-1.64-.728,2.174,2.174,0,0,0-.285-.237,1.728,1.728,0,0,1-.755-1.366,2.435,2.435,0,0,0-.257-.879,2.2,2.2,0,0,1-.1-1.478,11.735,11.735,0,0,0,.181-3.544,7.934,7.934,0,0,0-2.822,2.949l-.2-.378c-.049,0-.089,0-.1.01a.493.493,0,0,1-.539.2c-.311-.062-.663.107-.984.068a1.249,1.249,0,0,1-.916-1.75c.423-.891.855-1.78,1.338-2.64.976-1.737,1.918-3.5,3.008-5.164.862-1.316,1.916-2.508,2.9-3.744.488-.613,1.013-1.2,1.518-1.8a.952.952,0,0,1,1.294.146,2.777,2.777,0,0,1,.487,1.176,10.731,10.731,0,0,0,.656,2.964,2.864,2.864,0,0,1-.045,2.685,7.085,7.085,0,0,1-1.8,1.844,5.8,5.8,0,0,0-1.808,1.962c1.058.835,1.362,2.111,1.792,3.458.128-.261.209-.417.281-.576.445-.985.908-1.964,1.326-2.961.339-.811.629-1.642.932-2.468a3.824,3.824,0,0,1,1.531-2.1,6.378,6.378,0,0,1,2.436-.566,5.586,5.586,0,0,1,1.232.005,6.337,6.337,0,0,1,4.63,2.008,1.152,1.152,0,0,1-.125,1.882,3.155,3.155,0,0,1-1.6.677,8.438,8.438,0,0,0-1.586.549C184.535,580.12,184.379,580.215,184.116,580.347Z" transform="translate(-166.195 -569.186)"/>
    </g>
  </g>
</svg>
