<svg xmlns="http://www.w3.org/2000/svg" width="40" height="40" viewBox="0 0 40 40">
  <defs>
    <style>
      .cls-1 {
        fill: #eeeff2;
      }

      .cls-2 {
        fill: #b2b7c8;
      }
    </style>
  </defs>
  <g id="empty_profile" transform="translate(-16 -285)">
    <circle id="椭圆_2" data-name="椭圆 2" class="cls-1" cx="20" cy="20" r="20" transform="translate(16 285)"/>
    <g id="组_1798" data-name="组 1798">
      <path id="减去_20" data-name="减去 20" class="cls-2" d="M-6383,3689a6.007,6.007,0,0,1-6-6,6.007,6.007,0,0,1,6-6,6.007,6.007,0,0,1,6,6A6.007,6.007,0,0,1-6383,3689Zm-3.579-5.5a.445.445,0,0,0-.444.444,3.8,3.8,0,0,0,4,3.556,3.8,3.8,0,0,0,4-3.556.446.446,0,0,0-.446-.444Z" transform="translate(6419.023 -3382)"/>
      <path id="减去_21" data-name="减去 21" class="cls-2" d="M-6380.977,3686.495a60.031,60.031,0,0,1-6.8-.378l-.2-.021a1.128,1.128,0,0,1-.787-.457,1.2,1.2,0,0,1-.213-.943,5.31,5.31,0,0,1,2.229-3.249,9.23,9.23,0,0,1,3.982-1.489l1.767,3.7,1.771-3.705a9.353,9.353,0,0,1,4.008,1.471,5.245,5.245,0,0,1,2.244,3.206,1.2,1.2,0,0,1-.214.945,1.108,1.108,0,0,1-.786.455A45.382,45.382,0,0,1-6380.977,3686.495Z" transform="translate(6417 -3371.451)"/>
    </g>
  </g>
</svg>
