<svg xmlns="http://www.w3.org/2000/svg" width="20" height="20" viewBox="0 0 20 20">
  <defs>
    <style>
      .cls-1 {
        fill: none;
      }

      .cls-2 {
        fill: #fff;
      }

      .cls-3, .cls-5 {
        fill: #aaa;
      }

      .cls-4, .cls-5 {
        stroke: none;
      }
    </style>
  </defs>
  <g id="ic_comment_grey_s" transform="translate(-302 -289)">
    <rect id="矩形_385" data-name="矩形 385" class="cls-1" width="20" height="20" transform="translate(302 289)"/>
    <g id="组_1460" data-name="组 1460">
      <g id="联合_1" data-name="联合 1" class="cls-2" transform="translate(6365 -3385)">
        <path class="cls-4" d="M -6046.81005859375 3690.25048828125 L -6053.00048828125 3690.25048828125 L -6054 3690.25048828125 C -6057.4462890625 3690.25048828125 -6060.25 3687.44677734375 -6060.25 3684.00048828125 C -6060.25 3680.55419921875 -6057.4462890625 3677.750244140625 -6054 3677.750244140625 L -6052 3677.750244140625 C -6048.5537109375 3677.750244140625 -6045.74951171875 3680.55419921875 -6045.74951171875 3684.00048828125 C -6045.74951171875 3685.66943359375 -6046.39990234375 3687.239013671875 -6047.580078125 3688.419921875 L -6048.1103515625 3688.9501953125 L -6047.580078125 3689.48046875 L -6046.81005859375 3690.25048828125 Z"/>
        <path class="cls-5" d="M -6048.62060546875 3689.50048828125 L -6049.1708984375 3688.950439453125 L -6048.11083984375 3687.8896484375 C -6047.07177734375 3686.850341796875 -6046.49951171875 3685.46923828125 -6046.49951171875 3684.00048828125 C -6046.49951171875 3680.967529296875 -6048.966796875 3678.500244140625 -6052 3678.500244140625 L -6054 3678.500244140625 C -6057.03271484375 3678.500244140625 -6059.5 3680.967529296875 -6059.5 3684.00048828125 C -6059.5 3687.033203125 -6057.03271484375 3689.50048828125 -6054 3689.50048828125 L -6053.00048828125 3689.50048828125 L -6048.62060546875 3689.50048828125 M -6044.99951171875 3691.00048828125 L -6053.00048828125 3691.00048828125 L -6054 3691.00048828125 C -6057.86669921875 3691.00048828125 -6061 3687.865478515625 -6061 3684.00048828125 C -6061 3680.1337890625 -6057.86669921875 3677.000244140625 -6054 3677.000244140625 L -6052 3677.000244140625 C -6048.13330078125 3677.000244140625 -6044.99951171875 3680.1337890625 -6044.99951171875 3684.00048828125 C -6044.99951171875 3685.93310546875 -6045.783203125 3687.68310546875 -6047.0498046875 3688.9501953125 L -6044.99951171875 3691.00048828125 Z"/>
      </g>
      <circle id="椭圆_90" data-name="椭圆 90" class="cls-3" cx="1" cy="1" r="1" transform="translate(308 298)"/>
      <circle id="椭圆_92" data-name="椭圆 92" class="cls-3" cx="1" cy="1" r="1" transform="translate(311 298)"/>
      <circle id="椭圆_91" data-name="椭圆 91" class="cls-3" cx="1" cy="1" r="1" transform="translate(314 298)"/>
    </g>
  </g>
</svg>
