<svg xmlns="http://www.w3.org/2000/svg" xmlns:xlink="http://www.w3.org/1999/xlink" width="24" height="24" viewBox="0 0 24 24">
  <defs>
    <style>
      .cls-1 {
        fill: #fff;
      }

      .cls-2 {
        fill: none;
      }

      .cls-3 {
        filter: url(#联合_3);
      }

      .cls-4 {
        filter: url(#联合_4);
      }

      .cls-5 {
        filter: url(#联合_5);
      }

      .cls-6 {
        filter: url(#联合_2);
      }
    </style>
    <filter id="联合_2" x="2.5" y="3.5" width="9" height="8.999" filterUnits="userSpaceOnUse">
      <feOffset dy="1" input="SourceAlpha"/>
      <feGaussianBlur stdDeviation="0.5" result="blur"/>
      <feFlood flood-opacity="0.4"/>
      <feComposite operator="in" in2="blur"/>
      <feComposite in="SourceGraphic"/>
    </filter>
    <filter id="联合_5" x="12.5" y="13.5" width="9" height="8.999" filterUnits="userSpaceOnUse">
      <feOffset dy="1" input="SourceAlpha"/>
      <feGaussianBlur stdDeviation="0.5" result="blur-2"/>
      <feFlood flood-opacity="0.4"/>
      <feComposite operator="in" in2="blur-2"/>
      <feComposite in="SourceGraphic"/>
    </filter>
    <filter id="联合_4" x="2.5" y="13.5" width="9" height="9" filterUnits="userSpaceOnUse">
      <feOffset dy="1" input="SourceAlpha"/>
      <feGaussianBlur stdDeviation="0.5" result="blur-3"/>
      <feFlood flood-opacity="0.4"/>
      <feComposite operator="in" in2="blur-3"/>
      <feComposite in="SourceGraphic"/>
    </filter>
    <filter id="联合_3" x="12.5" y="3.5" width="8.999" height="9" filterUnits="userSpaceOnUse">
      <feOffset dy="1" input="SourceAlpha"/>
      <feGaussianBlur stdDeviation="0.5" result="blur-4"/>
      <feFlood flood-opacity="0.4"/>
      <feComposite operator="in" in2="blur-4"/>
      <feComposite in="SourceGraphic"/>
    </filter>
  </defs>
  <g id="ic_fullscreen_video" transform="translate(-332 -199)">
    <g id="组_1239" data-name="组 1239" transform="translate(336 203)">
      <g class="cls-6" transform="matrix(1, 0, 0, 1, -4, -4)">
        <path id="联合_2-2" data-name="联合 2" class="cls-1" d="M-4596-1038v-6h6v2h-4v4Z" transform="translate(4600 1048)"/>
      </g>
      <g class="cls-5" transform="matrix(1, 0, 0, 1, -4, -4)">
        <path id="联合_5-2" data-name="联合 5" class="cls-1" d="M-4606-1048v-6h6v2h-4v4Z" transform="translate(-4586 -1034) rotate(180)"/>
      </g>
      <g class="cls-4" transform="matrix(1, 0, 0, 1, -4, -4)">
        <path id="联合_4-2" data-name="联合 4" class="cls-1" d="M-4596-1048v-6h6v2h-4v4Z" transform="translate(1058 -4576) rotate(-90)"/>
      </g>
      <g class="cls-3" transform="matrix(1, 0, 0, 1, -4, -4)">
        <path id="联合_3-2" data-name="联合 3" class="cls-1" d="M-4606-1038v-6h6v2h-4v4Z" transform="translate(-1024 4610) rotate(90)"/>
      </g>
    </g>
    <rect id="rectangle" class="cls-2" width="24" height="24" transform="translate(332 199)"/>
  </g>
</svg>
