<svg xmlns="http://www.w3.org/2000/svg" xmlns:xlink="http://www.w3.org/1999/xlink" width="20" height="20" viewBox="0 0 20 20">
  <defs>
    <style>
      .cls-1 {
        fill: #dc1a2f;
      }

      .cls-2 {
        fill: none;
      }

      .cls-3 {
        clip-path: url(#clip-path);
      }

      .cls-4 {
        fill: #fff;
      }
    </style>
    <clipPath id="clip-path">
      <rect id="矩形_6669" data-name="矩形 6669" class="cls-1" width="18" height="18" rx="3"/>
    </clipPath>
  </defs>
  <g id="ic_rmicon_s" transform="translate(-223 -2079)">
    <rect id="矩形_9160" data-name="矩形 9160" class="cls-2" width="20" height="20" transform="translate(223 2079)"/>
    <g id="ic_rmicon" transform="translate(-3785 1023)">
      <rect id="矩形_6668" data-name="矩形 6668" class="cls-1" width="18" height="18" rx="3" transform="translate(4009 1057)"/>
      <g id="蒙版组_2" data-name="蒙版组 2" class="cls-3" transform="translate(4009 1057)">
        <path id="路径_524" data-name="路径 524" class="cls-4" d="M17.745,15.913a12.035,12.035,0,0,0-1.562-.975.281.281,0,0,1-.15-.416.4.4,0,0,0,.015-.3,1.49,1.49,0,0,0-.259-.773c-.115-.165-.285-.295-.409-.454a1.709,1.709,0,0,0-.627-.482.212.212,0,0,0-.231,0c-.05.041,0,.09.039.124a1.364,1.364,0,0,1,.283.4,3.316,3.316,0,0,1,.166.422,6.523,6.523,0,0,1,.113.893c-.092.111-.2.06-.292.011a1.6,1.6,0,0,0-.572-.177.54.54,0,0,1-.245-.1c-.089-.055-.2.009-.286-.042a.314.314,0,0,1-.315-.175.382.382,0,0,1,0-.275,1.8,1.8,0,0,1,1.181-1.616c.224-.113.285-.218.187-.428a.168.168,0,0,1-.017-.1.313.313,0,0,0-.227-.365c-.134-.053-.347-.12-.326-.282a.985.985,0,0,1,.3-.672.655.655,0,0,0,0-.434c-.033-.249-.415-.446-.209-.612.041-.033-.093-.066-.105-.13-.005-.028.033-.029.031-.062-.006-.071.045-.136.143-.2a.85.85,0,0,0,.328-.4.474.474,0,0,0-.01-.242.257.257,0,0,0-.132-.3,1.841,1.841,0,0,0-1.186-.065l.005,0a2.314,2.314,0,0,0-.559.26.291.291,0,0,1-.239.081c-.023,0-.071.019-.067-.023,0-.026.043-.049.067-.073a.406.406,0,0,1,.177-.162,1.915,1.915,0,0,0,.768-.6,1.99,1.99,0,0,1,.332-.349c.012-.009.046-.032.052-.011,0,.073.007.1.041.079a1.275,1.275,0,0,1,.274-.139c.079-.039.174.012.251-.041l.464-.655a.724.724,0,0,0,0-.35.93.93,0,0,0-1.268-.291c-.282.191-.565.381-.851.568s-.568.369-.857.547c-.176.109-.338.088-.31-.056a1.146,1.146,0,0,0,.078-.58.763.763,0,0,0-.066-.175c-.023-.065-.022-.144-.1-.182a.927.927,0,0,0-1.316.382,1.77,1.77,0,0,0-.744-.071,2.636,2.636,0,0,0-.74.276,4.915,4.915,0,0,1-1.638.6c-.122.048-.255-.01-.377.036-.091.026-.183.085-.272,0-.016-.095.051-.149.1-.212s.094-.141-.027-.178a.01.01,0,0,1-.007-.012c.016-.046.108-.11.2-.192a2.209,2.209,0,0,1,.431-.295,6.576,6.576,0,0,1,1.146-.751c.079,0,.21-.218.281-.189.033.016-.072.124-.127.16s-.019.105-.006.1a2.608,2.608,0,0,1,1-.422,1.354,1.354,0,0,0,.96-.467.443.443,0,0,0,.089-.5.905.905,0,0,0-.275-.375,5.36,5.36,0,0,0-.728-.541,1.016,1.016,0,0,0-.4-.125,1.639,1.639,0,0,1-.44-.137.647.647,0,0,0-.236-.07c-.149-.017-.209.018-.4-.01a3.058,3.058,0,0,0-.8.024,5.387,5.387,0,0,0-.694.1c-.151.038-.193.046-.188.158,0,.068-.072.043-.152.07a.753.753,0,0,0-.358.285,3.926,3.926,0,0,0-.411,1.01,6.772,6.772,0,0,1-.508,1.177c-.069.138-.2.41-.254.557-.121.3-.145.4-.257.662-.044.1-.05.1-.141.024-.035-.111-.026-.237-.106-.334-.038-.032-.029-.076-.031-.118a.891.891,0,0,0-.148-.335l-.257-.455a.516.516,0,0,0-.182-.184c-.087-.038-.147-.09-.07-.184.247-.3.426-.66.816-.839a1.542,1.542,0,0,0,.566-.5A1.645,1.645,0,0,1,5.2,3.318c.108-.078.061-.225.14-.317A1.639,1.639,0,0,0,5.2,1.785l0,0A4.019,4.019,0,0,1,4.958.473.68.68,0,0,0,4.789.02L4.774,0H3.927A.652.652,0,0,0,3.8.155c-.052.069-.145.094-.187.173l-.088.1q-.067.09-.14.175L3.3.7a2.91,2.91,0,0,1-.236.282l-.228.273c-.041.056-.086.11-.13.164a19.845,19.845,0,0,0-1.868,2.9c-.045.087-.135.141-.177.23-.1.113-.114.27-.186.4l-.089.141A1.065,1.065,0,0,0,.3,5.324c-.06.056-.051.147-.1.208l-.1.146c-.049.061-.054.144-.106.2V7.174A.283.283,0,0,0,.419,7.16c.1-.054.185.086.284.015a.251.251,0,0,0,.257-.1c.079-.025.079.029.088.081s.033.116.108.05c.013-.013.132-.219.192-.3.079-.081.054-.221.164-.284.075.122-.072.185-.077.285a.107.107,0,0,0-.015.046.45.45,0,0,1-.066.145c-.028.041-.059.086-.1.134a.138.138,0,0,0,0,.07.486.486,0,0,0,.032.094s.045.066.076.042a.069.069,0,0,0,0-.107.049.049,0,0,1-.023-.022.059.059,0,0,1,.01-.061c.026-.038,0-.066.023-.125a.713.713,0,0,0,.113-.172c.094-.108.1-.253.168-.373h0c.106-.161.167-.366.356-.462.037-.016.095-.145.155-.151.027,0-.026.065-.044.12s-.016.091.006.083c.027-.036.175-.207.2-.246.038-.072.107-.142.18-.134.044.005.013.146.013.207,0,.15.015.3.008.453-.076.264-.041.606-.1.8L2.352,7.8c.035.089-.017.191.036.278a1.753,1.753,0,0,0,.186.479c.054.138-.022.29.045.427l.178.232a.592.592,0,0,0,.131.13l.051.045a.478.478,0,0,1,.154.153l.078.077a1.26,1.26,0,0,0,.3.144A.845.845,0,0,0,4.34,9.7c.078-.046.174-.1.159-.2a.58.58,0,0,1,.157-.444l0,.006c.065-.079.032-.17.025-.255a3.727,3.727,0,0,1-.118-1.3c.007-.028-.016-.022-.042-.024s.016-.159.036-.215a.362.362,0,0,0-.011-.191c-.028-.117.084-.22.107-.333a7.533,7.533,0,0,1,.228-.93c.129-.41.5-1.147.633-1.45a6.7,6.7,0,0,1,.422-.753c.044-.146.146-.088.235-.065.258.068.518.129.771.211.331.107.678.139,1.014.222.123.03.172.082.074.195-.038.044-.069.1-.107.139C7.4,4.915,6.877,5.5,6.368,6.1a1.191,1.191,0,0,1-.722.509.545.545,0,0,0-.286.747,2.175,2.175,0,0,0,.4.537c.059.045.119.09.174.14a.281.281,0,0,0,.146.1.873.873,0,0,0,.188.078l0,0a2.692,2.692,0,0,0,.687.179c.023.037.062.034.1.031A3.141,3.141,0,0,0,8.21,8.155l-.005,0A.955.955,0,0,0,8.389,8.1l.539-.305c.139-.061.415-.176.415-.176.26-.077.2,0,.277-.1.016-.009.03-.028.046-.037.091-.042.163-.006.268-.056a.494.494,0,0,1,.215-.061,1.18,1.18,0,0,0,.294.346,1.4,1.4,0,0,0,1.19.252,1.227,1.227,0,0,0,.242-.193,2,2,0,0,0,.472-.946.141.141,0,0,1,.025-.06A2.746,2.746,0,0,1,13.3,5.9a.125.125,0,0,1,.151.016,19.058,19.058,0,0,1-1.523,1.888,2.28,2.28,0,0,1-.264.224c-.1.084-.194.173-.289.262a1.643,1.643,0,0,1-.176.131l-.1.088a2.022,2.022,0,0,1-.177.132l-.1.087a1.76,1.76,0,0,1-.177.131l-.1.088a1.192,1.192,0,0,1-.175.129l-.053.047a1.753,1.753,0,0,1-.178.131,1.082,1.082,0,0,1-.348.226c-.094.045-.221-.029-.3.075a.277.277,0,0,0-.121.266.635.635,0,0,0,.747.427c.246-.063.486-.154.736-.193.154-.024.319-.138.48-.01a.323.323,0,0,0-.006.218.947.947,0,0,0,.382.775c.084.063.1.09.017.154-.127.1-.257.2-.373.311a2.892,2.892,0,0,1-.7.481.715.715,0,0,0-.451.8c.072.215.04.505.355.6a.536.536,0,0,0,.323.01c.071-.071.183-.025.251-.067a5,5,0,0,1,.961-.364c.333-.119.344-.106.4.207-.034.075.007.159-.033.233a1.673,1.673,0,0,1-.132.285c-.065.094-.12.226-.288.181-.141-.05-.293.012-.434-.037a4.426,4.426,0,0,1-.765-.006c-.111-.048-.235.008-.346-.038l-.438,0c-.126-.052-.265.009-.392-.039l-.162-.006c-.108-.049-.229.009-.338-.038l-.124-.006a.293.293,0,0,0-.23,0c-.125.049-.274.068-.321.219-.063.146.013.3-.044.45a3.912,3.912,0,0,0,.422,1.108c.189.384.493.7.71,1.062.1.172.155.377.341.5.28.042.548.134.831.171a1.071,1.071,0,0,0,.55-.045l0,0a1.53,1.53,0,0,0,.738-.272l.045-.034c.118-.064.2-.179.324-.23l.032-.037a3.4,3.4,0,0,0,.2-.347c.016-.141.074-.107.147-.033s.148.141.223.211c.065.038.12.087.18.13a.548.548,0,0,0,.234.129,1.963,1.963,0,0,0,1.2-.094l0,0c.077-.036.177-.026.232-.1l.273-.112c.11-.037.2-.21.34-.045h0c.062.064.158.079.225.136l.276.177a.623.623,0,0,1,.278.218l.321.262c.042.062.1.114.139.177l0,0A3.385,3.385,0,0,0,17.745,15.913ZM6.415,6.168c.017-.035.106-.146.181-.154s.067.063-.047.171c-.035.018-.053.04-.087.058C6.414,6.235,6.382,6.236,6.415,6.168ZM8.8,14.59c-.021-.049-.058-.014-.085-.1a.072.072,0,0,1,.033-.1c.05-.034.092.055.091.1,0,.077,0,.1-.011.108S8.807,14.606,8.8,14.59Zm.078.221c-.03.019-.045-.025-.06-.065a.249.249,0,0,1,0-.115c0-.007.017-.006.022.01.017.048.043.06.048.086S8.917,14.787,8.878,14.811Zm2.282.58c-.007.036-.022.047-.056.067a.041.041,0,0,1-.06-.049.11.11,0,0,1,.038-.054.072.072,0,0,1,.068-.011C11.167,15.356,11.164,15.373,11.16,15.392Zm.422-.382a1.23,1.23,0,0,1-.412.356.035.035,0,0,0-.023-.039.1.1,0,0,0-.1.026.394.394,0,0,0-.034.041c-.207.23-.52.181-.783.264-.073.023-.157-.031-.229-.082a4.31,4.31,0,0,1-.762-.667.3.3,0,0,1-.06-.112c-.037-.131-.171-.281-.018-.393a.549.549,0,0,1,.463-.048,1.373,1.373,0,0,0,.616.118,1.986,1.986,0,0,1,.619.086c.195.037.388.083.583.112a.314.314,0,0,1,.243.145C11.747,14.917,11.631,14.953,11.582,15.009Zm2.655.8a2.118,2.118,0,0,1-.9.434,1.143,1.143,0,0,1-.505-.163.091.091,0,0,1-.049-.128c.069-.2.134-.4.2-.593a.209.209,0,0,1,.315-.146c.3.114.6.215.9.332C14.345,15.6,14.406,15.678,14.237,15.805Z"/>
      </g>
    </g>
  </g>
</svg>
