<svg id="ic_share_wechat_s" xmlns="http://www.w3.org/2000/svg" width="20" height="20" viewBox="0 0 20 20">
  <defs>
    <style>
      .cls-1 {
        fill: #31bf56;
      }

      .cls-2 {
        fill: #fff;
      }
    </style>
  </defs>
  <circle id="椭圆_353" data-name="椭圆 353" class="cls-1" cx="10" cy="10" r="10"/>
  <g id="组_7579" data-name="组 7579" transform="translate(3.75 5)">
    <path id="路径_525" data-name="路径 525" class="cls-2" d="M1797.765,1658c2.079,0,3.765,1.406,3.765,3.139a2.954,2.954,0,0,1-1.332,2.4.19.19,0,0,0-.074.2l.2.73a.136.136,0,0,1-.2.153l-.9-.52a.19.19,0,0,0-.151-.017,4.425,4.425,0,0,1-1.3.194c-2.079,0-3.765-1.406-3.765-3.14S1795.686,1658,1797.765,1658Zm.748,2.134a.5.5,0,1,0,.5-.5A.5.5,0,0,0,1798.512,1660.134Zm-2.508.007a.5.5,0,1,0,.5-.5A.5.5,0,0,0,1796,1660.141Z" transform="translate(-1789.029 -1654.545)"/>
    <path id="路径_526" data-name="路径 526" class="cls-2" d="M1493.514,1446c-2.493,0-4.514,1.686-4.514,3.765a3.543,3.543,0,0,0,1.6,2.873.228.228,0,0,1,.089.245l-.235.875a.163.163,0,0,0,.239.183l1.08-.624a.229.229,0,0,1,.181-.021,5.308,5.308,0,0,0,1.563.232q.137,0,.272-.007a2.9,2.9,0,0,1-.158-.944c0-1.892,1.839-3.425,4.107-3.425.079,0,.157,0,.235.006A4.351,4.351,0,0,0,1493.514,1446Zm-1.5,3.162a.6.6,0,1,1,.6-.6A.6.6,0,0,1,1492.015,1449.162Zm3.007.008a.6.6,0,1,1,.6-.6A.6.6,0,0,1,1495.022,1449.17Z" transform="translate(-1489 -1446)"/>
  </g>
</svg>
