<svg xmlns="http://www.w3.org/2000/svg" xmlns:xlink="http://www.w3.org/1999/xlink" width="40" height="40" viewBox="0 0 40 40">
  <defs>
    <style>
      .cls-1 {
        fill: url(#linear-gradient);
      }

      .cls-2, .cls-5 {
        fill: #fff;
      }

      .cls-2 {
        stroke: #c4a26f;
        stroke-width: 0.6px;
      }

      .cls-3 {
        fill: #92703d;
      }

      .cls-4 {
        fill: #ffbc58;
      }

      .cls-6 {
        stroke: none;
      }

      .cls-7 {
        fill: none;
      }
    </style>
    <linearGradient id="linear-gradient" x1="0.5" x2="0.5" y2="1" gradientUnits="objectBoundingBox">
      <stop offset="0" stop-color="#fff5e6"/>
      <stop offset="1" stop-color="#c4a26f"/>
    </linearGradient>
  </defs>
  <g id="ic_vip_4" transform="translate(-5051 132)">
    <g id="椭圆_378" data-name="椭圆 378" class="cls-2" transform="translate(5051 -132)">
      <circle class="cls-6" cx="20" cy="20" r="20"/>
      <circle class="cls-7" cx="20" cy="20" r="19.7"/>
    </g>
    <g id="组_7927" data-name="组 7927">
      <path id="联合_32" data-name="联合 32" class="cls-1" d="M2,24.332a2,2,0,0,1-2-2v-10a2,2,0,0,1,2-2H4.459l-.124-.463,1.931-.518.263.981H18a2,2,0,0,1,2,2v10a2,2,0,0,1-2,2ZM4.075,8.9A6,6,0,1,1,15.666,5.8l.258.965h0a1,1,0,1,1-1.931.518h0l-.259-.965a4,4,0,1,0-7.727,2.07l.259.965-1.933.518Z" transform="translate(5061 -125.332)"/>
      <rect id="矩形_9145" data-name="矩形 9145" class="cls-3" width="3" height="9" rx="1.5" transform="translate(5069.5 -111)"/>
    </g>
    <g id="组_7924" data-name="组 7924" transform="translate(1421 -474)">
      <rect id="矩形_6651" data-name="矩形 6651" class="cls-4" width="34" height="12" rx="6" transform="translate(3633 370)"/>
      <path id="tab_item" class="cls-5" d="M-12.368,0h1.1l1.84-5.888h-.944l-.872,3.048c-.192.672-.336,1.248-.536,1.928h-.04c-.208-.68-.336-1.256-.536-1.928l-.872-3.048h-.984Zm3.7,0h.928V-5.888h-.928ZM-6.2,0h.928V-2.232h.888c1.28,0,2.216-.592,2.216-1.88,0-1.328-.936-1.776-2.248-1.776H-6.2Zm.928-2.976V-5.144H-4.5c.936,0,1.424.256,1.424,1.032s-.448,1.136-1.392,1.136ZM1.3-2.984l-.712.216v-1.64h.688V-5.12H.584V-6.712H-.128V-5.12H-.544c.032-.288.064-.576.088-.864l-.6-.12A11.125,11.125,0,0,1-1.5-3.432a3.7,3.7,0,0,1,.56.3A10.93,10.93,0,0,0-.648-4.408h.52v1.84c-.48.136-.936.264-1.28.344l.152.752c.336-.1.72-.216,1.128-.352V.632H.584V-2.04c.256-.088.52-.168.768-.256Zm.56,1.32A5.923,5.923,0,0,1,2.792-.392l.576-.384A5.863,5.863,0,0,0,2.4-2.008Zm4-2.016v-.688H3.992v-.88H5.5V-5.92H3.992v-.8h-.7v.8H1.816v.672H3.288v.88H1.36v.688H4.232v.856H1.5v.688H4.232V-.248c0,.112-.04.144-.168.144S3.512-.1,3.08-.112A2.816,2.816,0,0,1,3.3.632,3.78,3.78,0,0,0,4.584.5c.28-.12.352-.336.352-.736v-1.9H5.8v-.688H4.936V-3.68ZM9.912-2.648C9.728-2.864,8.848-3.8,8.576-4.04v-.352h1V-5.08h-1V-6.7H7.848V-5.08H6.592v.688h1.1A8.248,8.248,0,0,1,6.36-1.5a4.719,4.719,0,0,1,.424.76A8.188,8.188,0,0,0,7.848-3.008V.624h.728V-3.208c.32.416.712.952.9,1.24Zm2.944-2.64A8.491,8.491,0,0,1,11.632-2.1,9.123,9.123,0,0,1,10.56-5.288ZM13.2-6.04l-.12.032h-.128V-6H9.624v.712h.312l-.08.016a10.186,10.186,0,0,0,1.3,3.8A5.308,5.308,0,0,1,9.152,0a2.721,2.721,0,0,1,.456.624A6.41,6.41,0,0,0,11.6-.856,7.91,7.91,0,0,0,13.384.672a1.724,1.724,0,0,1,.528-.624,6.528,6.528,0,0,1-1.824-1.512,9.77,9.77,0,0,0,1.584-4.424Z" transform="translate(3650 379)"/>
    </g>
  </g>
</svg>
