<svg xmlns="http://www.w3.org/2000/svg" xmlns:xlink="http://www.w3.org/1999/xlink" width="40" height="40" viewBox="0 0 40 40">
  <defs>
    <style>
      .cls-1, .cls-4 {
        fill: #fff;
      }

      .cls-1 {
        stroke: #c4a26f;
        stroke-width: 0.6px;
      }

      .cls-2 {
        fill: url(#linear-gradient);
      }

      .cls-3 {
        fill: #ffbc58;
      }

      .cls-4 {
        font-size: 8px;
        font-family: SourceHanSansCN-Regular, Source Han Sans CN;
      }

      .cls-5 {
        fill: #92703d;
      }

      .cls-6 {
        stroke: none;
      }

      .cls-7 {
        fill: none;
      }
    </style>
    <linearGradient id="linear-gradient" x1="0.5" x2="0.5" y2="1" gradientUnits="objectBoundingBox">
      <stop offset="0" stop-color="#fff5e6"/>
      <stop offset="1" stop-color="#c4a26f"/>
    </linearGradient>
  </defs>
  <g id="ic_vip_3" transform="translate(-4916 132)">
    <g id="椭圆_374" data-name="椭圆 374" class="cls-1" transform="translate(4916 -132)">
      <circle class="cls-6" cx="20" cy="20" r="20"/>
      <circle class="cls-7" cx="20" cy="20" r="19.7"/>
    </g>
    <path id="联合_29" data-name="联合 29" class="cls-2" d="M1.148,21.913a1.344,1.344,0,0,1-1.122-1.54c.823-3.43,4.936-5.04,8.975-5.04s8.151,1.61,8.975,5.04a1.245,1.245,0,0,1-1.122,1.47A54.547,54.547,0,0,1,9,22.333,72.97,72.97,0,0,1,1.148,21.913ZM2.334,6.666A6.667,6.667,0,1,1,9,13.333,6.666,6.666,0,0,1,2.334,6.666Z" transform="translate(4927 -124.333)"/>
    <g id="组_7923" data-name="组 7923" transform="translate(1286 -474)">
      <rect id="矩形_6651" data-name="矩形 6651" class="cls-3" width="34" height="12" rx="6" transform="translate(3633 370)"/>
      <text id="tab_item" class="cls-4" transform="translate(3650 379)"><tspan x="-14" y="0">VIP特权</tspan></text>
    </g>
    <g id="组_7926" data-name="组 7926" transform="translate(4931.512 -116.147)">
      <path id="减去_67" data-name="减去 67" class="cls-5" d="M4.441,3.365A4.358,4.358,0,0,1,0,0H8.883A4.359,4.359,0,0,1,4.441,3.365Z" transform="translate(0.046 0)"/>
      <rect id="矩形_9139" data-name="矩形 9139" class="cls-5" width="8.975" transform="translate(0)"/>
    </g>
  </g>
</svg>
