<svg id="img_tips" xmlns="http://www.w3.org/2000/svg" width="360" height="220" viewBox="0 0 360 220">
  <defs>
    <style>
      .cls-1 {
        fill: none;
      }

      .cls-2 {
        fill: #fff;
      }
    </style>
  </defs>
  <rect id="矩形_6585" data-name="矩形 6585" class="cls-1" width="360" height="220"/>
  <g id="组_6696" data-name="组 6696" transform="translate(280 20)">
    <g id="组_6694" data-name="组 6694">
      <path id="路径_4558" data-name="路径 4558" class="cls-2" d="M-4422.044,6193.666a81.087,81.087,0,0,0-10.787,10.428,170.06,170.06,0,0,0-22.766,32.529,219.2,219.2,0,0,0-13.277,29.3c-.28.758-.377,2.075.665,2.248,1.018.169,1.95-1.188,2.241-1.975a211.823,211.823,0,0,1,11.41-25.7,184.518,184.518,0,0,1,11.653-19.186,154.155,154.155,0,0,1,10.646-13.577q1.137-1.288,2.306-2.545.508-.547,1.023-1.087c.084-.088.7-.726.263-.275q.264-.272.53-.544,1.7-1.735,3.487-3.389c1.13-1.044,2.278-2.092,3.505-3.021a3.126,3.126,0,0,0,1.14-2.983c-.341-1.066-1.366-.74-2.04-.23Z" transform="translate(4469.063 -6193.189)"/>
    </g>
    <g id="组_6695" data-name="组 6695" transform="translate(5.452 1.584)">
      <path id="路径_4559" data-name="路径 4559" class="cls-2" d="M-4382.644,6221.741a111.11,111.11,0,0,1,8.021-19.041,2.931,2.931,0,0,0,.361-2.562,1.188,1.188,0,0,0-1.761-.39c-10.036,5.569-19.936,11.426-29.619,17.587-3.923,2.5-7.8,5.066-11.595,7.753a3.523,3.523,0,0,0-1.307,3.393c.4,1.233,1.555.815,2.337.262,11.811-8.362,24.4-15.69,36.98-22.824,1.09-.618,2.181-1.235,3.276-1.843l-1.4-2.952a118.605,118.605,0,0,0-8.62,20.305c-.283.871-.459,2.355.761,2.556,1.137.188,2.274-1.344,2.567-2.246Z" transform="translate(4418.634 -6199.526)"/>
    </g>
  </g>
  <path id="路径_4565" data-name="路径 4565" class="cls-2" d="M-92.148,2.3l-.56-6.692-1.26.028-.112-2.66,1.148-.028L-93.1-9.1l1.288-1.428,11.06-.42,1.372,1.316V-.084l-.98,1.26-3.472.924-.644-2.548,2.464-.644v-.42l-7.784.2.28,3.416Zm6.888-17.584v1.176h6.132v2.632H-94.052v-2.632h6.16v-1.064l-4.34.2-.14-2.632,4.48-.2v-.644l-5.628.42-.2-2.66,5.824-.42v-1.372h2.632v1.176l5.432-.392.2,2.632-5.628.42v.728l4.088-.168.14,2.6ZM-98.532,1.848l-1.68-1.54,2.436-12.1-4.564-.98.56-2.6,5.824,1.288,1.008,1.54L-97.16-1.288l2.268-.672.756,2.52Zm8.484-6.328.028.532,8.008-.2V-8.26l-8.316.308.056.812,6.944-.224.112,2.632Zm-6.888-11.76-4.564-2.8,1.372-2.24,4.592,2.8ZM-56.9-5.348l-14.7-.588-1.232-1.036-1.484-6.384,1.26-1.624,5.1-.084-.9-6.552,2.6-.364.336,2.408,7.9-.98.336,2.632-7.868.98.252,1.82,10-.2,1.288,1.6L-55.58-6.412ZM-70.476-8.54l12.544.532,1.036-4.62-14.476.252ZM-54.488,1.708-56.952-1.82-69.58,1.54l-.672-2.52,13.524-3.612,1.428.532L-52.332.224Zm-18.928.14L-75.88.868l2.464-6.16,2.436.98Zm36.932-11.9.2,8.344,7.252-.224.784-5.6,2.632.392-1.26,9.128-2.632-.336L-29.4.7l-17.388.532L-48.16.14l-1.092-7.392,2.632-.336.9,6.188,6.8-.224-.2-8.26-9.492.532-.2-2.66,9.6-.532-.084-3.892-7.868-.252.112-2.632,7.672.252-.056-2.968,2.632-.084.084,3.136,8.568.252-.112,2.66-8.4-.28.084,3.64,9.884-.56.2,2.632Zm13.972-6.272,8.372-.784,2.716-4.256,2.24,1.456-1.6,2.492L.728-18.508.98-15.9-12.6-14.616l-1.932,3.024,12.152.532,1.232,1.568L-3.024-.728-4.2.308l-10.36.868L-15.988.028l-.84-8.036L-20.3-2.6l-2.212-1.428L-15.96-14.28l-6.3.588ZM-13.524-1.54l8.12-.7L-4.06-8.512l-10.22-.42ZM4.452-2.016l9.856-.28-.9-18.312,2.66-.112.308,6.776,7.84-1.232.42,2.6-8.12,1.316.42,8.876,10.3-.308L27.3-.056,4.536.588ZM48.076-.7l2.464-.84-.952-12.124L36.82-12.376l-.028,2.1,4.984-.308.056-1.6,2.6.084-.028,1.372L48.636-11l.14,2.6-4.452.28L44.3-6.02l4.816-.56.28,2.632L44.24-3.36,44.156.616l-2.6-.084.084-3.584-5.208.588L34.048,1.6,31.808.224,34.132-3.7l.028-3.78L33.1-7.42l-.168-2.6,1.232-.084.028-3.472,1.2-1.288,10.444-1.064L46.9-17.5l-9.744.448-.644,1.484L34.048-16.6l2.324-5.32,2.408,1.036L38.3-19.74l11.032-.5L50.512-18.2l-1.26,1.9,1.428-.14,1.428,1.176L53.256-.728,52.388.644,48.916,1.82ZM36.736-5.152l4.956-.56.028-2.24-4.956.308ZM55.748-17.444v-6.048l2.268.028v6.048Zm3.08-.056v-6.048l2.268.028v6.048Zm40.012.056v-6.048l2.268.028v6.048Zm3.08-.056v-6.048l2.268.028v6.048Zm-244.5,46.908,7.532,3.192-1.036,2.464-8.876-3.78-5.964,4.676-1.624-2.1,4.816-3.78-2.912-1.26,1.008-2.408,4.284,1.82,3.276-2.576-8.176-1.568-5.544,11.032-2.38-1.176,6.748-13.384-4.9-.056-1.176-1.848,2.716-5.852,2.38,1.12-1.848,3.948,4.172.028,3.052-6.02,2.324,1.2-2.436,4.844,11.592.084v2.66l-12.936-.084-.5,1.036,10.248,1.988.56,2.352Zm4.088-12.124-3.416-3.528,1.932-1.82,3.36,3.528Zm14.7,11.956,2.576-4.172-2.24-.084.084-2.6,3.752.14,1.68-2.716h-5.432v-2.66h3.052l-1.736-2.716L-119.868,13l1.9,2.884-1.932,1.26h5.292l1.988-4.788,2.464,1.008-1.6,3.78h2.1V19.8h-5.18l-1.764,2.828,8.12.308-.084,2.6-9.6-.364-3.388,5.46Zm-7.868,4.256,2.884-2.352,1.428-8.708-3.248-.728.588-2.6,4.452,1.064,1.008,1.512L-126,30.724l17.752,2.156-.336,2.576-18.592-2.184L-130,35.484Zm1.82-19.292,2.1-1.624,3.332,4.256-2.1,1.624Zm14.672,13.16,1.988-1.708,3.332,3.92-1.988,1.708ZM-92.6,35.9l-1.54-1.036-1.036-7.448,1.372-1.512,9.884.56,1.2,1.6-1.344,5.6L-85.092,34.7Zm-4.564-7.2-6.44-.308-1.036-2.072,3.472-5.152-3.612-1.036-.448-2.3,5.964-5.18,1.708,2.016-4.144,3.584,3,.924.728,1.988-3.164,4.7,4.06.168Zm8.848-13.664,6.972,3.7-1.26,2.324-8.008-4.228-5.1,3.948-1.6-2.1,8.708-6.748,1.6,2.1Zm4.76,9.156-11.032-.392.084-2.632,11.06.392Zm-8.792,4.424.644,4.48,5.32-.9.728-3.192ZM-103.6,35.68l-1.232-2.324,7.112-3.7,1.2,2.324Zm41.524-2.828,4.368-1.876-.28-3.78-5.264.644-.336,6.972-2.632-.14,1.008-20.72,1.4-1.26,6.272.364,1.232,1.232,1.288,17.444-.756,1.316-5.264,2.184ZM-78.26,34.616-77.2,13.868l1.4-1.232,6.524.336,1.26,1.26.476,18.424-1.344,1.316h-4.452v-2.6H-70.2l-.112-4.256-4.956.392-.364,7.224Zm3.3-13.132-.168,3.36,4.76-.392-.224-8.9-4.032-.224-.2,3.528,3.164.224-.2,2.66Zm11.844,3.668,4.928-.588-.2-2.856-4.536-.112Zm.308-6.188,4.228.084-.252-3.444-3.78-.2Zm12.936-3.136,5.432-.308,1.652-3.3,2.38,1.2-.98,1.9,12.656-.728.14,2.66-14.168.812-1.12,2.268L-31.3,21.2l.756,2.324-6.1,5.152,6.944,4.256-1.4,2.212-7.672-4.676-6.1,5.152-1.708-1.96,5.488-4.62L-43.96,27.28l1.372-2.24L-39,27.252l4.284-3.612-10.444-.756-3.808,7.532-2.38-1.176,5.544-11-3.92.224Zm25.228,1.428,12.656-1.092-.672-3.108,2.548-.56.784,3.444,1.6-.14-.784-1.2,2.24-1.456,1.512,2.408,2.128-.2.252,2.632-6.356.56,1.708,7.616,3.36-2.716,1.68,2.072-4.4,3.528.476,2.016,3.248,2.1L-4.088,35.4l-3.724-2.408L-8.4,32.18l-.28-1.288-2.072,1.652-1.624-2.072,3.052-2.464-2.072-9.24L-24.388,19.86Zm2.772,12.04L-23.52,22.66l1.12-1.6,7.84-.84,1.484,1.372-.252,6.524-1.12,1.26-5.964.924Zm-1.9,3.388,10.08-2.268.616,2.576-10.08,2.268ZM-19.6,27.5l3.668-.56.14-3.948-4.816.5ZM2.156,34.112l6.888-9.744L4.06,24.76l-.2-2.66L19.4,20.84l1.428,1.288.56,12.208L19.6,35.6l-6.916-2.52.952-2.464L18.62,32.46l-.364-8.848-5.74.476L4.34,35.568ZM.672,19.776l7.42-7.5L10,14.12l-7.42,7.532Zm16.1-4.2,1.568-2.128,7.644,5.712L24.36,21.288Zm12.88,14.448,9.968-.7.392-.784,2.072-1.26h-9.94V24.62l14.616.028.7,2.464L44.408,28.96l6.272-.448.168,2.632-8.6.644.2,1.96L41.328,35.2l-5.32.644-.336-2.576,4.032-.5-.084-.784-9.8.7Zm4.928-6.5-1.26-1.176-.308-3.108,1.232-1.456,11.564-.756,1.4,1.316L47.18,22.66l-1.372,1.288ZM29.12,14.68l8.372-.448-.448-.588,2.1-1.624,1.54,2.016,9.828-.532.14,2.6-21.364,1.2Zm15.428,6.58.056-1.512-8.82.616.056.588Zm10.668-7.868,14.98-.9.14,2.66-9.436.532L59.22,19.58l7.28-.42-.784-2.268,2.52-.9,1.344,3.976-1.2,1.764-4.536.252.252,2.912,4.424-.308.2,2.66-4.368.308.308,3.22,5.488-1.12.532,2.632L55.58,35.316l-.532-2.6,6.972-1.4-.308-3.584-4.984.308-.168-2.66,4.928-.308-.252-2.94-4,.224-1.316-1.876,2.016-4.62-2.52.14ZM71.26,34.868l.168-2.66,3.668.252.5-19.544L78.26,13l-.532,20.916L76.3,35.232Zm-.42-7.2.168-10.892,2.66.028L73.5,27.7Zm27.02,5.18,4.368-1.876-.28-3.78-5.264.644-.336,6.972-2.632-.14,1.008-20.72,1.4-1.26,6.272.364,1.232,1.232,1.288,17.444-.756,1.316L98.9,35.232ZM81.676,34.616,82.74,13.868l1.4-1.232,6.524.336,1.26,1.26L92.4,32.656l-1.344,1.316H86.6v-2.6H89.74l-.112-4.256-4.956.392-.364,7.224Zm3.3-13.132-.168,3.36,4.76-.392-.224-8.9-4.032-.224-.2,3.528,3.164.224-.2,2.66Zm11.844,3.668,4.928-.588-.2-2.856L97.02,21.6Zm.308-6.188,4.228.084-.252-3.444-3.78-.2Zm12.936-3.136,5.432-.308,1.652-3.3,2.38,1.2-.98,1.9,12.656-.728.14,2.66-14.168.812-1.12,2.268,12.572.868.756,2.324-6.1,5.152,6.944,4.256-1.4,2.212-7.672-4.676-6.1,5.152-1.708-1.96,5.488-4.62-2.856-1.764,1.372-2.24,3.584,2.212,4.284-3.612-10.444-.756-3.808,7.532-2.38-1.176,5.544-11-3.92.224Zm27.524,19.544L136.3,34.14l-.84-19.8,1.26-1.372,19.628-.812,1.372,1.4-1.036,20.916-1.344,1.2Zm1.064-7.14.2,4.592,15.26.252.252-5.376-1.6,1.176L149.24,24l-3.836.448-.812.812,4.62-.364,1.344,1.764-.784,2.352-2.52-.84.2-.5-2.716.224.2,1.848,7.728-.672.2,2.632-9.016.756-1.428-1.176-.308-3.5-1.9,1.932Zm12.516-10.444.952-.084.252,2.66-5.992.56-.168.756,7.7-.868.28,2.632-1.96.224,2.184,3.024.616-11.816-12.8.532,2.044,2.352-.924.784.84-.084.532-2.576,2.576.532-.364,1.792.98-.112,1.428-2.492,2.324,1.288Zm-11.116,1.064,1.54-.14-1.82-2.128,1.316-1.12-2.94.112.476,11.928,2.6-2.576-2.1.224-.308-2.632,4.648-.532.168-.812-3.332.308Z" transform="translate(180 141)"/>
  <g id="组_6697" data-name="组 6697" transform="translate(247 129)">
    <circle id="椭圆_10333" data-name="椭圆 10333" class="cls-2" cx="3" cy="3" r="3"/>
    <circle id="椭圆_10334" data-name="椭圆 10334" class="cls-2" cx="3" cy="3" r="3" transform="translate(10)"/>
    <circle id="椭圆_10335" data-name="椭圆 10335" class="cls-2" cx="3" cy="3" r="3" transform="translate(20)"/>
  </g>
  <g id="组_6700" data-name="组 6700" transform="matrix(1, 0.017, -0.017, 1, 260.564, 178.297)">
    <g id="组_6698" data-name="组 6698" transform="translate(0 0)">
      <path id="路径_4560" data-name="路径 4560" class="cls-2" d="M73.554,1.151c-1.1-.121-2.205-.208-3.309-.294C67.1.612,63.954.436,60.8.3Q53.474,0,46.134,0,36.571-.009,27.017.441,15.568.973,4.164,2.133q-1.515.154-3.028.319c-.706.077-1.621,1.663-.83,2.1A16.016,16.016,0,0,1,3.018,6.607c.409.36,1.095-.391,1.265-.674a1.062,1.062,0,0,0-.024-1.388A16.005,16.005,0,0,0,1.546,2.49l-.831,2.1Q12.243,3.339,23.834,2.734q9.726-.507,19.471-.552,7.611-.031,15.219.244c3.343.125,6.684.3,10.019.545,1.362.1,2.741.311,4.1.353.017,0,.035,0,.052.006.955.1,1.953-2.058.854-2.178Z"/>
    </g>
    <g id="组_6699" data-name="组 6699" transform="translate(78.089 2.994)">
      <path id="路径_4561" data-name="路径 4561" class="cls-2" d="M1.02,2.865C2.478,2.865,3.312,0,1.518,0,.06,0-.774,2.865,1.02,2.865Z"/>
    </g>
  </g>
  <g id="组_6701" data-name="组 6701" transform="translate(102 179.93)">
    <path id="路径_4562" data-name="路径 4562" class="cls-2" d="M-3632.369,6201.012c-9.741-.5-19.586-.458-29.342-.262q-7.928.159-15.84.557a2.09,2.09,0,0,0-1.743,1.043c-.161.3-.331,1.229.517,1.187,14.124-.711,28.354-.907,42.5-.406.893.032,1.787.064,2.679.11,1.381.071,2.792-2.15,1.226-2.23Z" transform="translate(3679.426 -6200.614)"/>
  </g>
</svg>
